# xmcd
#
# Track frame offsets:
#	150
#	16201
#	31707
#	47458
#	61930
#	79288
#	92240
#	105646
#	121184
#	137572
#	154462
#	170936
#	188390
#	201269
#	211748
#	224898
#	244039
#	260527
#	278357
#	291399
#	306978
#	322142
#	342241
#
# Disc length: 4730 seconds
#
# Revision: 1
# Processed by: cddbd v1.5.1PL0 Copyright (c) Steve Scherf et al.
# Submitted via: EasyCDDAExtractor 5.0.6
#
DISCID=56127817
DTITLE=Various Artist - Raízes Sertanejas
DYEAR=2005
DGENRE=Sertanejo Raiz
TTITLE0=João Mulato and Pardinho - A Caneta e a Enxada
TTITLE1=Tião Carreiro and Pardinho - Jogador de Baralho
TTITLE2=Cacique and Pajé - Mosca Branca
TTITLE3=Abel and Caim - O Milagre da Traição
TTITLE4=Liu and Léu - Juramento Quebrado
TTITLE5=Lourenço and Lourival - A Vingança do Caçador
TTITLE6=Goiano and Paranaense - O Poder do Criador
TTITLE7=Lourenço and Lourival - Burro Inocente
TTITLE8=Abel and Caim - Milagre do Retrato
TTITLE9=Tião Carreiro and Pardinho - Catimbau
TTITLE10=Leôncio and Leonel - Boi Fumaça
TTITLE11=Lourenço and Lourival - Franguinho na Panela
TTITLE12=Abel and Caim - O Fazendeiro e o Diabo
TTITLE13=Tião Carreiro and Pardinho - Sucuri
TTITLE14=Lourenço and Lourival - O Menino Caçador
TTITLE15=Abel and Caim - O Menino e o Cachorro
TTITLE16=Tião Carreiro and Pardinho - O Milagre da Vela
TTITLE17=Lourenço and Lourival - O Preço da Mentira
TTITLE18=Lourenço and Lourival - Relógio Quebrado
TTITLE19=Abel and Caim - Santa Luzia
TTITLE20=Carreiro and Carreirinho - Se os Animais Falassem
TTITLE21=Lourenço and Lourival - A Sementinha
TTITLE22=Tião Carreiro and Pardinho - Pretinho Aleijado
EXTD=
EXTT0=
EXTT1=
EXTT2=
EXTT3=
EXTT4=
EXTT5=
EXTT6=
EXTT7=
EXTT8=
EXTT9=
EXTT10=
EXTT11=
EXTT12=
EXTT13=
EXTT14=
EXTT15=
EXTT16=
EXTT17=
EXTT18=
EXTT19=
EXTT20=
EXTT21=
EXTT22=
PLAYORDER=
